<svg width="48" height="48" viewBox="0 0 48 48" fill="none" xmlns="http://www.w3.org/2000/svg">
<path d="M0 8.20513C0 3.67356 3.67356 0 8.20513 0H39.7949C44.3264 0 48 3.67356 48 8.20513V39.7949C48 44.3264 44.3264 48 39.7949 48H8.20513C3.67356 48 0 44.3264 0 39.7949V8.20513Z" fill="url(#paint0_linear)"/>
<path fill-rule="evenodd" clip-rule="evenodd" d="M38.8146 28.3113C39.3403 27.7855 39.1289 26.8903 38.4234 26.6554L23.681 21.7461C22.8994 21.4858 22.156 22.2292 22.4162 23.0108L27.3255 37.7533C27.5605 38.4587 28.4557 38.6702 28.9814 38.1444L32.1142 35.0116C32.5047 34.6211 33.1379 34.6211 33.5284 35.0116L37.9199 39.4031C38.3104 39.7937 38.9436 39.7937 39.3341 39.4031L40.0734 38.6639C40.4639 38.2734 40.4639 37.6402 40.0734 37.2497L35.6819 32.8582C35.2914 32.4677 35.2914 31.8345 35.6819 31.444L38.8146 28.3113Z" fill="url(#paint1_linear)"/>
<path d="M13.9902 14.4139V15.6776C13.9902 17.2573 13.9415 18.4492 13.8441 19.2534C13.7467 20.0576 13.4594 20.7995 12.9821 21.4793C12.5146 22.159 11.7451 22.7334 10.6737 23.2025C11.9302 23.6908 12.797 24.4279 13.2743 25.414C13.7516 26.3905 13.9902 27.75 13.9902 29.4924V32.2353C13.9902 32.9724 14.0438 33.5325 14.1509 33.9154C14.2678 34.2984 14.5064 34.5856 14.8668 34.7771C15.237 34.9781 15.8214 35.0786 16.6201 35.0786H17.1899V37.405H15.9042C14.3068 37.405 13.1379 36.9598 12.3977 36.0695C11.6672 35.1791 11.3019 33.6522 11.3019 31.4885V29.3488C11.3019 27.6447 11.0633 26.4145 10.586 25.6582C10.1185 24.9018 9.25648 24.4854 8 24.4088V21.9962C9.00324 21.9388 9.73862 21.6851 10.2062 21.2351C10.6737 20.7852 10.9708 20.2107 11.0974 19.5119C11.2337 18.813 11.3019 17.9131 11.3019 16.8121V15.4048C11.3019 13.7581 11.4285 12.4896 11.6818 11.5992C11.9448 10.7089 12.4464 10.0531 13.1866 9.63186C13.9269 9.21062 15.0032 9 16.4155 9H17.1899V11.312H16.8684C16.0892 11.312 15.4951 11.3838 15.086 11.5274C14.6769 11.6615 14.3896 11.9391 14.224 12.3604C14.0681 12.7816 13.9902 13.4661 13.9902 14.4139Z" fill="url(#paint2_linear)"/>
<path d="M35.0098 15.6776V14.4139C35.0098 13.4661 34.9319 12.7816 34.776 12.3604C34.6104 11.9391 34.3231 11.6615 33.914 11.5274C33.5049 11.3838 32.9108 11.312 32.1316 11.312H31.8101V9H32.5845C33.9968 9 35.0731 9.21062 35.8134 9.63186C36.5536 10.0531 37.0552 10.7089 37.3182 11.5992C37.5715 12.4896 37.6981 13.7581 37.6981 15.4048V16.8121C37.6981 17.9131 37.7663 18.813 37.9026 19.5119C38.0292 20.2107 38.3263 20.7852 38.7938 21.2351C39.2614 21.6851 39.9968 21.9388 41 21.9962V24.4088L38.3263 23.2025C37.2549 22.7334 36.4854 22.159 36.0179 21.4793C35.5406 20.7995 35.2533 20.0576 35.1559 19.2534C35.0585 18.4492 35.0098 17.2573 35.0098 15.6776Z" fill="url(#paint3_linear)"/>
<defs>
<linearGradient id="paint0_linear" x1="24" y1="0" x2="24" y2="48" gradientUnits="userSpaceOnUse">
<stop/>
<stop offset="1" stop-opacity="0"/>
</linearGradient>
<linearGradient id="paint1_linear" x1="31.3648" y1="21.6931" x2="31.3648" y2="39.696" gradientUnits="userSpaceOnUse">
<stop stop-color="#36E5AB"/>
<stop offset="1" stop-color="#21AFE9"/>
</linearGradient>
<linearGradient id="paint2_linear" x1="12.5949" y1="9" x2="12.5949" y2="37.405" gradientUnits="userSpaceOnUse">
<stop stop-color="#36E5AB"/>
<stop offset="1" stop-color="#21AFE9"/>
</linearGradient>
<linearGradient id="paint3_linear" x1="36.4051" y1="9" x2="36.4051" y2="24.4088" gradientUnits="userSpaceOnUse">
<stop stop-color="#36E5AB"/>
<stop offset="1" stop-color="#21AFE9"/>
</linearGradient>
</defs>
</svg>
