<?xml version="1.0" encoding="UTF-8"?>
<svg width="64px" height="64px" viewBox="0 0 64 64" version="1.1" xmlns="http://www.w3.org/2000/svg" xmlns:xlink="http://www.w3.org/1999/xlink">
    <title>Group</title>
    <g id="Page-1" stroke="none" stroke-width="1" fill="none" fill-rule="evenodd">
        <g id="Group" fill="#5E6AD2" fill-rule="nonzero">
            <path d="M0.403013,37.3991 L26.6009,63.597 C13.2225,61.3356 2.66442,50.7775 0.403013,37.3991 Z" id="Path"></path>
            <path d="M0,30.2868 L33.7132,64 C35.7182,63.8929 37.6742,63.6013 39.5645,63.142 L0.85799,24.4355 C0.398679,26.3259 0.10713,28.2818 0,30.2868 Z" id="Path"></path>
            <path d="M2.53593,19.4042 L44.5958,61.4641 C46.1277,60.8066 47.598,60.0331 48.9956,59.1546 L4.84543,15.0044 C3.96691,16.402 3.19339,17.8723 2.53593,19.4042 Z" id="Path"></path>
            <path d="M7.69501,11.1447 C13.5677,4.32093 22.2677,0 31.9769,0 C49.6628,0 64,14.3372 64,32.0231 C64,41.7323 59.6791,50.4323 52.8553,56.305 L7.69501,11.1447 Z" id="Path"></path>
        </g>
    </g>
</svg>