<?xml version="1.0" encoding="UTF-8"?>
<svg width="56px" height="17px" viewBox="0 0 56 17" version="1.1" xmlns="http://www.w3.org/2000/svg" xmlns:xlink="http://www.w3.org/1999/xlink">
    <title>Group</title>
    <g id="Page-1" stroke="none" stroke-width="1" fill="none" fill-rule="evenodd">
        <g id="Group" fill="#000000" fill-rule="nonzero">
            <path fill="#742eff"  d="M10.058,0.819 C10.419,1.027 10.719,1.327 10.928,1.689 L17.421,12.935 C17.8453059,13.6703316 17.8452201,14.5761391 17.4207749,15.3113903 C16.9963298,16.0466415 16.2119687,16.4997032 15.363,16.5 L2.377,16.5 C1.52785263,16.5 0.743164328,16.0471397 0.318475198,15.3118232 C-0.106213932,14.5765066 -0.106395073,13.6704863 0.318,12.935 L6.811,1.689 C7.46740378,0.55213925 8.92111898,0.162631329 10.058,0.819 Z" id="Path"></path>
            <path fill="#00cc7a" d="M28,0 C23.3055796,0 19.5,3.80557963 19.5,8.5 C19.5,13.1944204 23.3055796,17 28,17 C32.6944204,17 36.5,13.1944204 36.5,8.5 C36.5,3.80557963 32.6944204,0 28,0 Z" id="Path"></path>
            <rect fill="#ffb80f" id="Rectangle" x="40" y="0.5" width="16" height="16" rx="3"></rect>
        </g>
    </g>
</svg>