<?xml version="1.0" standalone="no"?>
<!DOCTYPE svg PUBLIC "-//W3C//DTD SVG 20010904//EN"
 "http://www.w3.org/TR/2001/REC-SVG-20010904/DTD/svg10.dtd">
<svg version="1.0" xmlns="http://www.w3.org/2000/svg"
 width="260.000000pt" height="260.000000pt" viewBox="0 0 260.000000 260.000000"
 preserveAspectRatio="xMidYMid meet">
<metadata>
Created by potrace 1.11, written by Peter Selinger 2001-2013
</metadata>
<g transform="translate(0.000000,260.000000) scale(0.100000,-0.100000)"
fill="#000000" stroke="none">
<path d="M539 2248 c-77 -11 -107 -28 -151 -88 -38 -51 -44 -100 -42 -365 1
-207 3 -246 18 -277 23 -47 60 -85 111 -110 39 -21 54 -21 810 -22 858 0 837
-2 902 65 62 63 68 100 67 385 -1 234 -3 253 -23 292 -11 22 -33 53 -48 67
-63 59 -30 57 -849 59 -413 0 -771 -2 -795 -6z m1531 -187 c6 -12 10 -108 10
-241 0 -133 -4 -229 -10 -241 -10 -19 -29 -19 -761 -19 -498 0 -757 3 -770 10
-18 10 -19 24 -19 250 0 217 2 240 18 249 11 7 277 10 769 11 734 0 753 0 763
-19z"/>
<path d="M876 1208 c-64 -9 -119 -47 -153 -105 l-28 -48 0 -275 c0 -248 2
-278 19 -309 26 -48 54 -76 105 -102 43 -22 47 -22 476 -23 454 0 461 1 527
46 16 11 40 40 55 66 l28 47 1 255 c1 140 -2 271 -7 291 -14 55 -60 111 -114
138 l-49 24 -406 1 c-224 1 -428 -2 -454 -6z"/>
</g>
</svg>
